# xmcd
#
# Track frame offsets:
#	150
#	17930
#	34443
#	52076
#	68346
#	85820
#	105616
#	126236
#	147449
#	161905
#	174806
#	187385
#	203806
#	215858
#	227781
#	242104
#	257194
#	269634
#	285301
#	297770
#
# Disc length: 4195 seconds
#
# Revision: 0
# Processed by: cddbd v1.5.1PL0 Copyright (c) Steve Scherf et al.
# Submitted via: audiograbber 1.83.01
#
DISCID=3e106114
DTITLE=Coleção Saudade Sertaneja - Coleção Saudade Sertaneja Vol. 01
DYEAR=1900
DGENRE=
TTITLE0=Belmonte and Amaraí - Te Amarei Toda Vida
TTITLE1=Tião Carreiro and Pardinho - A Mão Do Tempo
TTITLE2=Tibagi and Miltinho - Orgulhosa E Bonita
TTITLE3=Os Filhos De Goiás - Amor Distante
TTITLE4=Silveira and Silveirinha - Berrante Da Meia-Noite
TTITLE5=Jacó and Jacozinho - A Capa Do Viajante
TTITLE6=Lourenço and Lourival - Menina Da Aldeia
TTITLE7=Praião and Prainha - Igrejinha Da Serra
TTITLE8=Caçula and Marinheiro - Primeiro A Esposa
TTITLE9=Belmonte and Amaraí - Lágrimas Da Alma
TTITLE10=Léo Canhoto and Robertinho - Amarga Recordação
TTITLE11=Pery and Poty - Sublime Renuncia
TTITLE12=Brazão and Brazãozinho - João De Barro
TTITLE13=Léo Canhoto and Robertinho - Fofinha
TTITLE14=Zé Do Rancho and Zé Do Pinho - Meu Sítio, Meu Paraíso
TTITLE15=Cacique and Pagé - Resto De Comida
TTITLE16=Praião and Prainha - Roubando A Goiana
TTITLE17=Lourenço and Lourival - Como Eu Chorei
TTITLE18=Joaquim and Manoel - O Pinguço Da Porteira
TTITLE19=Amoroso and Amaraí - Operário, Vida E Viola
EXTD=
EXTT0=
EXTT1=
EXTT2=
EXTT3=
EXTT4=
EXTT5=
EXTT6=
EXTT7=
EXTT8=
EXTT9=
EXTT10=
EXTT11=
EXTT12=
EXTT13=
EXTT14=
EXTT15=
EXTT16=
EXTT17=
EXTT18=
EXTT19=
PLAYORDER=
